<mxfile>
    <diagram id="23iRSUPoRavnBvh4doch" name="Page-1">
        <mxGraphModel dx="1258" dy="800" grid="1" gridSize="10" guides="1" tooltips="1" connect="1" arrows="1" fold="1" page="1" pageScale="1" pageWidth="827" pageHeight="1169" math="0" shadow="0">
            <root>
                <mxCell id="0"/>
                <mxCell id="1" parent="0"/>
                <mxCell id="2" value="Dispatcher" style="shape=umlLifeline;perimeter=lifelinePerimeter;whiteSpace=wrap;html=1;container=1;collapsible=0;recursiveResize=0;outlineConnect=0;" parent="1" vertex="1">
                    <mxGeometry x="90" y="40" width="100" height="990" as="geometry"/>
                </mxCell>
                <mxCell id="5" value="" style="html=1;points=[];perimeter=orthogonalPerimeter;" parent="2" vertex="1">
                    <mxGeometry x="45" y="60" width="10" height="620" as="geometry"/>
                </mxCell>
                <mxCell id="10" value="" style="html=1;points=[];perimeter=orthogonalPerimeter;" parent="2" vertex="1">
                    <mxGeometry x="50" y="90" width="10" height="550" as="geometry"/>
                </mxCell>
                <mxCell id="11" value="poll_inner" style="edgeStyle=orthogonalEdgeStyle;html=1;align=left;spacingLeft=2;endArrow=block;rounded=0;entryX=1;entryY=0;" parent="2" target="10" edge="1">
                    <mxGeometry relative="1" as="geometry">
                        <mxPoint x="55" y="70" as="sourcePoint"/>
                        <Array as="points">
                            <mxPoint x="85" y="70"/>
                        </Array>
                    </mxGeometry>
                </mxCell>
                <mxCell id="28" value="" style="html=1;points=[];perimeter=orthogonalPerimeter;" parent="2" vertex="1">
                    <mxGeometry x="55" y="150" width="10" height="530" as="geometry"/>
                </mxCell>
                <mxCell id="29" value="poll_loop" style="edgeStyle=orthogonalEdgeStyle;html=1;align=left;spacingLeft=2;endArrow=block;rounded=0;entryX=1;entryY=0;" parent="2" target="28" edge="1">
                    <mxGeometry relative="1" as="geometry">
                        <mxPoint x="60" y="130" as="sourcePoint"/>
                        <Array as="points">
                            <mxPoint x="90" y="130"/>
                        </Array>
                    </mxGeometry>
                </mxCell>
                <mxCell id="30" value="" style="html=1;points=[];perimeter=orthogonalPerimeter;" parent="2" vertex="1">
                    <mxGeometry x="60" y="190" width="10" height="490" as="geometry"/>
                </mxCell>
                <mxCell id="31" value="poll_read" style="edgeStyle=orthogonalEdgeStyle;html=1;align=left;spacingLeft=2;endArrow=block;rounded=0;entryX=1;entryY=0;" parent="2" target="30" edge="1">
                    <mxGeometry relative="1" as="geometry">
                        <mxPoint x="65" y="170" as="sourcePoint"/>
                        <Array as="points">
                            <mxPoint x="95" y="170"/>
                        </Array>
                    </mxGeometry>
                </mxCell>
                <mxCell id="39" value="" style="html=1;points=[];perimeter=orthogonalPerimeter;" parent="2" vertex="1">
                    <mxGeometry x="65" y="280" width="10" height="250" as="geometry"/>
                </mxCell>
                <mxCell id="40" value="poll_read_head" style="edgeStyle=orthogonalEdgeStyle;html=1;align=left;spacingLeft=2;endArrow=block;rounded=0;entryX=1;entryY=0;" parent="2" target="39" edge="1">
                    <mxGeometry relative="1" as="geometry">
                        <mxPoint x="70" y="260" as="sourcePoint"/>
                        <Array as="points">
                            <mxPoint x="100" y="260"/>
                        </Array>
                    </mxGeometry>
                </mxCell>
                <mxCell id="64" value="" style="html=1;points=[];perimeter=orthogonalPerimeter;" vertex="1" parent="2">
                    <mxGeometry x="70" y="460" width="10" height="40" as="geometry"/>
                </mxCell>
                <mxCell id="65" value="Dispath::recv_msg" style="edgeStyle=orthogonalEdgeStyle;html=1;align=left;spacingLeft=2;endArrow=block;rounded=0;entryX=1;entryY=0;" edge="1" target="64" parent="2">
                    <mxGeometry relative="1" as="geometry">
                        <mxPoint x="75" y="440" as="sourcePoint"/>
                        <Array as="points">
                            <mxPoint x="105" y="440"/>
                        </Array>
                    </mxGeometry>
                </mxCell>
                <mxCell id="4" value="" style="shape=umlLifeline;participant=umlActor;perimeter=lifelinePerimeter;whiteSpace=wrap;html=1;container=1;collapsible=0;recursiveResize=0;verticalAlign=top;spacingTop=36;outlineConnect=0;" parent="1" vertex="1">
                    <mxGeometry x="20" y="50" width="20" height="1090" as="geometry"/>
                </mxCell>
                <mxCell id="6" value="future::poll" style="html=1;verticalAlign=bottom;endArrow=block;entryX=0;entryY=0;" parent="1" source="4" target="5" edge="1">
                    <mxGeometry relative="1" as="geometry">
                        <mxPoint x="65" y="100" as="sourcePoint"/>
                    </mxGeometry>
                </mxCell>
                <mxCell id="7" value="return" style="html=1;verticalAlign=bottom;endArrow=open;dashed=1;endSize=8;exitX=0;exitY=0.95;" parent="1" source="5" target="4" edge="1">
                    <mxGeometry relative="1" as="geometry">
                        <mxPoint x="65" y="176" as="targetPoint"/>
                    </mxGeometry>
                </mxCell>
                <mxCell id="12" value="common::date" style="shape=umlLifeline;perimeter=lifelinePerimeter;whiteSpace=wrap;html=1;container=1;collapsible=0;recursiveResize=0;outlineConnect=0;" parent="1" vertex="1">
                    <mxGeometry x="750" y="40" width="100" height="830" as="geometry"/>
                </mxCell>
                <mxCell id="15" value="" style="html=1;points=[];perimeter=orthogonalPerimeter;" parent="12" vertex="1">
                    <mxGeometry x="45" y="110" width="10" height="20" as="geometry"/>
                </mxCell>
                <mxCell id="16" value="update" style="html=1;verticalAlign=bottom;endArrow=block;entryX=0;entryY=0;" parent="1" source="10" target="15" edge="1">
                    <mxGeometry relative="1" as="geometry">
                        <mxPoint x="225" y="150" as="sourcePoint"/>
                    </mxGeometry>
                </mxCell>
                <mxCell id="19" value="thread local CACHED更新date header" style="shape=note2;boundedLbl=1;whiteSpace=wrap;html=1;size=8;verticalAlign=top;align=center;" parent="1" vertex="1">
                    <mxGeometry x="810" y="90" width="120" height="50" as="geometry"/>
                </mxCell>
                <mxCell id="32" value="Conn" style="shape=umlLifeline;perimeter=lifelinePerimeter;whiteSpace=wrap;html=1;container=1;collapsible=0;recursiveResize=0;outlineConnect=0;" parent="1" vertex="1">
                    <mxGeometry x="260" y="40" width="100" height="730" as="geometry"/>
                </mxCell>
                <mxCell id="33" value="" style="html=1;points=[];perimeter=orthogonalPerimeter;" parent="32" vertex="1">
                    <mxGeometry x="45" y="210" width="10" height="30" as="geometry"/>
                </mxCell>
                <mxCell id="46" value="" style="html=1;points=[];perimeter=orthogonalPerimeter;" vertex="1" parent="32">
                    <mxGeometry x="45" y="340" width="10" height="80" as="geometry"/>
                </mxCell>
                <mxCell id="34" value="can_read_head" style="html=1;verticalAlign=bottom;endArrow=block;entryX=0;entryY=0;" parent="1" source="30" target="33" edge="1">
                    <mxGeometry relative="1" as="geometry">
                        <mxPoint x="235" y="250" as="sourcePoint"/>
                    </mxGeometry>
                </mxCell>
                <mxCell id="35" value="return" style="html=1;verticalAlign=bottom;endArrow=open;dashed=1;endSize=8;exitX=0;exitY=0.95;" parent="1" source="33" target="30" edge="1">
                    <mxGeometry relative="1" as="geometry">
                        <mxPoint x="235" y="326" as="targetPoint"/>
                    </mxGeometry>
                </mxCell>
                <mxCell id="36" value="当准备读时" style="shape=note2;boundedLbl=1;whiteSpace=wrap;html=1;size=8;verticalAlign=top;align=center;" parent="1" vertex="1">
                    <mxGeometry x="320" y="210" width="120" height="50" as="geometry"/>
                </mxCell>
                <mxCell id="41" value="dispatch::Server" style="shape=umlLifeline;perimeter=lifelinePerimeter;whiteSpace=wrap;html=1;container=1;collapsible=0;recursiveResize=0;outlineConnect=0;" parent="1" vertex="1">
                    <mxGeometry x="600" y="40" width="100" height="580" as="geometry"/>
                </mxCell>
                <mxCell id="42" value="" style="html=1;points=[];perimeter=orthogonalPerimeter;" parent="41" vertex="1">
                    <mxGeometry x="45" y="300" width="10" height="20" as="geometry"/>
                </mxCell>
                <mxCell id="43" value="&lt;span style=&quot;font-size: 12px&quot;&gt;Dispatch::&lt;/span&gt;poll_ready" style="html=1;verticalAlign=bottom;endArrow=block;entryX=0;entryY=0;" parent="1" source="39" target="42" edge="1">
                    <mxGeometry relative="1" as="geometry">
                        <mxPoint x="405" y="340" as="sourcePoint"/>
                    </mxGeometry>
                </mxCell>
                <mxCell id="44" value="return" style="html=1;verticalAlign=bottom;endArrow=open;dashed=1;endSize=8;exitX=0;exitY=0.95;" parent="1" source="42" edge="1" target="39">
                    <mxGeometry relative="1" as="geometry">
                        <mxPoint x="160" y="360" as="targetPoint"/>
                    </mxGeometry>
                </mxCell>
                <mxCell id="47" value="&lt;span style=&quot;text-align: left&quot;&gt;poll_read_head&lt;/span&gt;" style="html=1;verticalAlign=bottom;endArrow=block;entryX=0;entryY=0;" edge="1" target="46" parent="1" source="39">
                    <mxGeometry relative="1" as="geometry">
                        <mxPoint x="235" y="380" as="sourcePoint"/>
                    </mxGeometry>
                </mxCell>
                <mxCell id="48" value="return" style="html=1;verticalAlign=bottom;endArrow=open;dashed=1;endSize=8;exitX=0;exitY=0.95;" edge="1" source="46" parent="1" target="39">
                    <mxGeometry relative="1" as="geometry">
                        <mxPoint x="235" y="456" as="targetPoint"/>
                    </mxGeometry>
                </mxCell>
                <mxCell id="49" value="Buffered" style="shape=umlLifeline;perimeter=lifelinePerimeter;whiteSpace=wrap;html=1;container=1;collapsible=0;recursiveResize=0;outlineConnect=0;" vertex="1" parent="1">
                    <mxGeometry x="430" y="40" width="100" height="580" as="geometry"/>
                </mxCell>
                <mxCell id="51" value="" style="html=1;points=[];perimeter=orthogonalPerimeter;" vertex="1" parent="49">
                    <mxGeometry x="47" y="350" width="10" height="40" as="geometry"/>
                </mxCell>
                <mxCell id="52" value="parse" style="html=1;verticalAlign=bottom;endArrow=block;entryX=0;entryY=0;" edge="1" target="51" parent="1" source="46">
                    <mxGeometry relative="1" as="geometry">
                        <mxPoint x="745" y="365" as="sourcePoint"/>
                    </mxGeometry>
                </mxCell>
                <mxCell id="53" value="return" style="html=1;verticalAlign=bottom;endArrow=open;dashed=1;endSize=8;exitX=0;exitY=0.95;" edge="1" source="51" parent="1" target="46">
                    <mxGeometry relative="1" as="geometry">
                        <mxPoint x="745" y="441" as="targetPoint"/>
                    </mxGeometry>
                </mxCell>
                <mxCell id="57" value="role::Server" style="shape=umlLifeline;perimeter=lifelinePerimeter;whiteSpace=wrap;html=1;container=1;collapsible=0;recursiveResize=0;outlineConnect=0;" vertex="1" parent="1">
                    <mxGeometry x="960" y="40" width="100" height="720" as="geometry"/>
                </mxCell>
                <mxCell id="60" value="" style="html=1;points=[];perimeter=orthogonalPerimeter;" vertex="1" parent="57">
                    <mxGeometry x="45" y="360" width="10" height="20" as="geometry"/>
                </mxCell>
                <mxCell id="61" value="Http1Transaction::parse" style="html=1;verticalAlign=bottom;endArrow=block;entryX=0;entryY=0;" edge="1" target="60" parent="1" source="51">
                    <mxGeometry relative="1" as="geometry">
                        <mxPoint x="935" y="415" as="sourcePoint"/>
                    </mxGeometry>
                </mxCell>
                <mxCell id="62" value="ParsedMessage" style="html=1;verticalAlign=bottom;endArrow=open;dashed=1;endSize=8;exitX=0;exitY=0.95;" edge="1" source="60" parent="1" target="51">
                    <mxGeometry relative="1" as="geometry">
                        <mxPoint x="935" y="491" as="targetPoint"/>
                    </mxGeometry>
                </mxCell>
                <mxCell id="66" value="service::util::ServiceFn" style="shape=umlLifeline;perimeter=lifelinePerimeter;whiteSpace=wrap;html=1;container=1;collapsible=0;recursiveResize=0;outlineConnect=0;" vertex="1" parent="1">
                    <mxGeometry x="1111" y="40" width="130" height="720" as="geometry"/>
                </mxCell>
                <mxCell id="68" value="" style="html=1;points=[];perimeter=orthogonalPerimeter;" vertex="1" parent="66">
                    <mxGeometry x="60" y="480" width="10" height="20" as="geometry"/>
                </mxCell>
                <mxCell id="69" value="HttpService::call" style="html=1;verticalAlign=bottom;endArrow=block;entryX=0;entryY=0;" edge="1" target="68" parent="1" source="64">
                    <mxGeometry relative="1" as="geometry">
                        <mxPoint x="1101" y="520" as="sourcePoint"/>
                    </mxGeometry>
                </mxCell>
                <mxCell id="70" value="Future" style="html=1;verticalAlign=bottom;endArrow=open;dashed=1;endSize=8;exitX=0;exitY=0.95;" edge="1" source="68" parent="1" target="64">
                    <mxGeometry relative="1" as="geometry">
                        <mxPoint x="1101" y="596" as="targetPoint"/>
                    </mxGeometry>
                </mxCell>
                <mxCell id="71" value="实际由tower service调用，这里是生成了用户定义fut。只差fut.poll就可以开始执行用户操作" style="shape=note2;boundedLbl=1;whiteSpace=wrap;html=1;size=8;verticalAlign=top;align=center;" vertex="1" parent="1">
                    <mxGeometry x="860" y="450" width="190" height="60" as="geometry"/>
                </mxCell>
            </root>
        </mxGraphModel>
    </diagram>
</mxfile>